HIERARCHY
ROOT joint_0
{
	OFFSET 0.000000 0.000000 0.000000
	CHANNELS 6 Xposition Yposition Zposition Zrotation Yrotation Xrotation 
	JOINT joint_1
	{
		OFFSET 7.683380 1.521202 101.454956
		CHANNELS 3 Zrotation Yrotation Xrotation
		JOINT joint_2
		{
			OFFSET -4.816528 0.859650 92.807007
			CHANNELS 3 Zrotation Yrotation Xrotation
			JOINT joint_3
			{
				OFFSET -7.237778 1.114670 92.543091
				CHANNELS 3 Zrotation Yrotation Xrotation
				JOINT joint_4
				{
					OFFSET 0.479660 2.971886 127.844971
					CHANNELS 3 Zrotation Yrotation Xrotation
					JOINT joint_5
					{
						OFFSET 15.211349 9.937172 76.390015
						CHANNELS 3 Zrotation Yrotation Xrotation
						End Site
						{
							OFFSET 0.000000 0.000000 0.000000
						}
					}
				}
				JOINT joint_6
				{
					OFFSET 2.887054 -26.053230 72.331909
					CHANNELS 3 Zrotation Yrotation Xrotation
					JOINT joint_7
					{
						OFFSET 10.229767 -132.540291 -13.979004
						CHANNELS 3 Zrotation Yrotation Xrotation
						JOINT joint_8
						{
							OFFSET 17.695633 -10.988861 -262.204956
							CHANNELS 3 Zrotation Yrotation Xrotation
							JOINT joint_9
							{
								OFFSET 11.003433 -0.031860 -255.909973
								CHANNELS 3 Zrotation Yrotation Xrotation
								End Site
								{
									OFFSET 0.000000 0.000000 0.000000
								}
							}
						}
					}
				}
				JOINT joint_10
				{
					OFFSET -2.092239 29.348854 71.062988
					CHANNELS 3 Zrotation Yrotation Xrotation
					JOINT joint_11
					{
						OFFSET -11.853149 131.935837 -17.877075
						CHANNELS 3 Zrotation Yrotation Xrotation
						JOINT joint_12
						{
							OFFSET 14.084503 10.700203 -262.437012
							CHANNELS 3 Zrotation Yrotation Xrotation
							JOINT joint_13
							{
								OFFSET 48.202347 13.087273 -251.229919
								CHANNELS 3 Zrotation Yrotation Xrotation
								End Site
								{
									OFFSET 0.000000 0.000000 0.000000
								}
							}
						}
					}
				}
			}
		}
	}
	JOINT joint_14
	{
		OFFSET 4.150818 -83.296913 -102.580017
		CHANNELS 3 Zrotation Yrotation Xrotation
		JOINT joint_15
		{
			OFFSET -36.423187 -7.342392 -449.858948
			CHANNELS 3 Zrotation Yrotation Xrotation
			JOINT joint_16
			{
				OFFSET -41.100235 -7.280350 -426.202026
				CHANNELS 3 Zrotation Yrotation Xrotation
				JOINT joint_17
				{
					OFFSET 175.972961 13.159744 -75.358000
					CHANNELS 3 Zrotation Yrotation Xrotation
					End Site
					{
						OFFSET 0.000000 0.000000 0.000000
					}
				}
			}
		}
	}
	JOINT joint_18
	{
		OFFSET -9.062592 83.477568 -102.093018
		CHANNELS 3 Zrotation Yrotation Xrotation
		JOINT joint_19
		{
			OFFSET -39.145699 -6.092751 -449.645996
			CHANNELS 3 Zrotation Yrotation Xrotation
			JOINT joint_20
			{
				OFFSET -32.926178 -7.016375 -426.911980
				CHANNELS 3 Zrotation Yrotation Xrotation
				JOINT joint_21
				{
					OFFSET 176.289299 16.780729 -73.883997
					CHANNELS 3 Zrotation Yrotation Xrotation
					End Site
					{
						OFFSET 0.000000 0.000000 0.000000
					}
				}
			}
		}
	}
}
MOTION
Frames: 10
Frame Time: 0.016667
890.619629 -49.198708 1075.516968 -1.026091 -2.869547 0.238920 -0.141496 5.538049 2.725306 -0.282425 -1.080706 -0.665299 -0.226229 1.203271 0.414821 -0.540817 1.796991 1.517234 0.000000 0.000000 0.000000 2.104111 -1.490815 3.153095 -0.360033 -1.906138 -5.616108 0.050661 -0.905665 1.114376 0.000000 0.000000 0.000000 -2.027277 -1.518343 -2.948738 -0.231323 -0.853448 1.703384 -0.174960 7.298253 -3.403648 0.000000 0.000000 0.000000 1.016824 -1.562411 0.431227 0.990817 2.406859 -0.032959 0.967326 2.522062 0.223936 0.000000 0.000000 0.000000 2.322973 -0.309444 0.804959 2.342294 2.971898 0.065800 2.324385 1.016891 0.874434 0.000000 0.000000 0.000000 
890.788025 -49.262955 1075.281982 -1.095587 -2.879743 0.217016 -0.126168 5.523669 2.755794 -0.271025 -1.103787 -0.679021 -0.214055 1.232796 0.421798 -0.555354 1.854493 1.552822 0.000000 0.000000 0.000000 2.054240 -1.496401 3.170838 -0.358183 -1.919226 -5.623302 0.051492 -0.858356 1.135354 0.000000 0.000000 0.000000 -1.940821 -1.456069 -2.985749 -0.185689 -0.803848 1.588583 -0.108794 7.061550 -2.932559 0.000000 0.000000 0.000000 0.993759 -1.727621 0.449676 0.965948 2.759329 -0.093059 0.945193 2.400321 0.223556 0.000000 0.000000 0.000000 2.356376 -0.333726 0.822048 2.373347 3.017971 0.099203 2.356896 1.164634 0.873858 0.000000 0.000000 0.000000 
890.894836 -49.280876 1075.098999 -1.204447 -2.871721 0.194115 -0.104985 5.501037 2.794078 -0.254929 -1.124404 -0.689108 -0.197934 1.258942 0.422383 -0.571217 1.932464 1.581799 0.000000 0.000000 0.000000 1.984849 -1.493383 3.152696 -0.359568 -1.918795 -5.579804 0.052877 -0.966948 1.158966 0.000000 0.000000 0.000000 -1.841268 -1.391323 -2.992658 -0.137144 -0.761564 1.409861 -0.033668 6.838938 -2.425655 0.000000 0.000000 0.000000 0.985719 -2.084875 0.474421 0.948459 3.443167 -0.151871 0.937842 2.117421 0.241461 0.000000 0.000000 0.000000 2.412570 -0.492241 0.849976 2.423590 3.317705 0.128734 2.415490 1.116847 0.902637 0.000000 0.000000 0.000000 
890.882629 -49.163391 1075.051025 -1.363120 -2.830696 0.193275 -0.075185 5.464651 2.813351 -0.229135 -1.142047 -0.671156 -0.175549 1.278739 0.406983 -0.583102 2.042436 1.570297 0.000000 0.000000 0.000000 1.902084 -1.464549 3.087702 -0.368426 -1.883710 -5.459849 0.053981 -1.378009 1.155048 0.000000 0.000000 0.000000 -1.737739 -1.343171 -2.958149 -0.092966 -0.746838 1.162220 0.043335 6.697657 -1.947907 0.000000 0.000000 0.000000 0.996785 -2.713297 0.498170 0.939015 4.576486 -0.209107 0.948485 1.644056 0.281123 0.000000 0.000000 0.000000 2.511686 -0.881102 0.866976 2.506101 4.053811 0.176332 2.520869 0.768715 0.979180 0.000000 0.000000 0.000000 
890.797791 -48.937721 1075.115967 -1.562685 -2.767196 0.214155 -0.038314 5.415580 2.806755 -0.195248 -1.158790 -0.619909 -0.149260 1.300561 0.375064 -0.592316 2.181391 1.526965 0.000000 0.000000 0.000000 1.808691 -1.415733 2.996519 -0.383319 -1.823251 -5.289435 0.055057 -2.020953 1.128383 0.000000 0.000000 0.000000 -1.624301 -1.306684 -2.900835 -0.047660 -0.751908 0.859607 0.127759 6.601065 -1.452383 0.000000 0.000000 0.000000 1.018351 -3.548736 0.518888 0.932817 6.057251 -0.276195 0.968777 1.052643 0.333495 0.000000 0.000000 0.000000 2.644842 -1.442816 0.863346 2.612924 5.127167 0.251798 2.665331 0.190578 1.093406 0.000000 0.000000 0.000000 
890.543213 -48.790134 1075.104004 -1.808199 -2.651646 0.208870 -0.004155 5.334644 2.823956 -0.170962 -1.142212 -0.600947 -0.128362 1.280491 0.355256 -0.611343 2.322793 1.531316 0.000000 0.000000 0.000000 1.675388 -1.376455 2.804161 -0.398838 -1.761459 -5.024132 0.061995 -2.789925 1.211112 0.000000 0.000000 0.000000 -1.496075 -1.237216 -2.726528 -0.013096 -0.750478 0.420541 0.206833 6.539736 -1.007049 0.000000 0.000000 0.000000 1.086856 -4.727428 0.547166 0.960110 8.080954 -0.298415 1.038423 0.252456 0.422054 0.000000 0.000000 0.000000 2.776208 -2.203920 0.950427 2.733585 6.465757 0.208953 2.826945 -0.474879 1.222374 0.000000 0.000000 0.000000 
889.964539 -48.894974 1074.866943 -2.099676 -2.448047 0.163892 0.017317 5.182768 2.829762 -0.167328 -1.048979 -0.620590 -0.120311 1.174151 0.370632 -0.653797 2.458779 1.656621 0.000000 0.000000 0.000000 1.461428 -1.369048 2.415161 -0.409797 -1.712453 -4.588851 0.081170 -3.641991 1.529398 0.000000 0.000000 0.000000 -1.334690 -1.103155 -2.313905 0.001148 -0.738560 -0.295118 0.277711 6.541923 -0.637244 0.000000 0.000000 0.000000 1.233477 -6.419224 0.587593 1.051686 10.883413 -0.258509 1.198316 -0.797977 0.566553 0.000000 0.000000 0.000000 2.871914 -3.289050 1.210341 2.857303 8.182654 -0.099423 2.990464 -1.146339 1.351453 0.000000 0.000000 0.000000 
889.100098 -49.179634 1074.477051 -2.418022 -2.175347 0.121569 0.023986 4.982624 2.754031 -0.183713 -0.904920 -0.627631 -0.130047 1.005210 0.411015 -0.714077 2.597351 1.871101 0.000000 0.000000 0.000000 1.179808 -1.383185 1.864845 -0.416762 -1.669430 -4.012789 0.113482 -4.611105 2.048064 0.000000 0.000000 0.000000 -1.136769 -0.923673 -1.701123 -0.000191 -0.728258 -1.252438 0.345013 6.612796 -0.319661 0.000000 0.000000 0.000000 1.431380 -8.547565 0.605632 1.192292 14.345857 -0.163664 1.437793 -1.921608 0.747887 0.000000 0.000000 0.000000 2.926947 -4.675958 1.575974 2.977017 10.292123 -0.617143 3.160169 -1.805030 1.479865 0.000000 0.000000 0.000000 
888.342651 -49.424961 1074.040039 -2.793211 -1.876114 0.100252 0.032294 4.794139 2.665093 -0.213616 -0.791715 -0.638000 -0.155184 0.856996 0.443358 -0.766039 2.697545 2.071823 0.000000 0.000000 0.000000 0.918202 -1.409042 1.361991 -0.421967 -1.645277 -3.506341 0.154111 -5.563481 2.612803 0.000000 0.000000 0.000000 -0.982400 -0.714297 -1.158482 -0.010239 -0.662620 -2.054123 0.381729 6.609624 -0.153154 0.000000 0.000000 0.000000 1.640803 -10.808368 0.490938 1.348931 17.996380 0.116523 1.729926 -2.920187 0.938764 0.000000 0.000000 0.000000 2.969589 -5.916889 1.897747 3.107301 12.082813 -1.111926 3.341508 -2.338639 1.599934 0.000000 0.000000 0.000000 
888.056213 -49.432434 1073.641968 -3.268767 -1.522597 0.128270 0.050125 4.550575 2.582058 -0.251772 -0.720986 -0.652963 -0.193288 0.770337 0.446158 -0.791835 2.721256 2.194480 0.000000 0.000000 0.000000 0.734706 -1.424556 1.024605 -0.429004 -1.630604 -3.199129 0.200930 -6.444077 3.147486 0.000000 0.000000 0.000000 -0.928559 -0.447431 -0.880344 -0.032444 -0.463527 -2.413267 0.353856 6.369986 -0.259157 0.000000 0.000000 0.000000 1.850247 -13.102423 0.138308 1.517514 21.629634 0.689844 2.071433 -3.730958 1.132293 0.000000 0.000000 0.000000 3.039677 -6.741907 2.045797 3.276001 13.041351 -1.428507 3.545885 -2.754899 1.718609 0.000000 0.000000 0.000000 
